<?xml version="1.0" encoding="UTF-8"?>
<!DOCTYPE svg PUBLIC "-//W3C//DTD SVG 1.1//EN" "http://www.w3.org/Graphics/SVG/1.1/DTD/svg11.dtd">
<!-- Creator: CorelDRAW 2020 (64 Bit) -->
<svg xmlns="http://www.w3.org/2000/svg" xml:space="preserve" width="200mm" height="200mm" version="1.1" style="shape-rendering:geometricPrecision; text-rendering:geometricPrecision; image-rendering:optimizeQuality; fill-rule:evenodd; clip-rule:evenodd"
viewBox="0 0 20000 20000"
 xmlns:xlink="http://www.w3.org/1999/xlink"
 xmlns:xodm="http://www.corel.com/coreldraw/odm/2003">
 <defs>
  <style type="text/css">
   <![CDATA[
    .str0 {stroke:white;stroke-width:282.22;stroke-miterlimit:22.9256}
    .fil0 {fill:none}
    .fil2 {fill:#32748C}
    .fil1 {fill:#FF9922}
    .fil3 {fill:white}
   ]]>
  </style>
 </defs>
 <g id="Camada_x0020_1">
  <metadata id="CorelCorpID_0Corel-Layer"/>
  <g id="_2895317754976">
   <path class="fil0 str0" d="M16786.71 7689.19c186.1,0 336.97,150.87 336.97,336.97 0,186.11 -150.87,336.98 -336.97,336.98 -186.11,0 -336.98,-150.87 -336.98,-336.98 0,-186.1 150.87,-336.97 336.98,-336.97zm-7749.9 5056.5l-147.25 261.29 -854.78 0 0 -545.64c303.82,22.41 600.36,-24.13 851.85,-150.28 39.61,90.87 80.67,248.78 150.18,434.63zm-318.41 564.98l-828.03 1469.19 -480.11 -332.31 -805.03 1823.1 -480.11 -332.3 -805.03 1823.12 -472.71 -3897.68 480.07 332.29 -155.1 -2487.67 480.06 332.28 212.89 -1411.89c60.22,-22.37 117.49,-51.24 170.3,-85.95l72.51 125.6 1275.15 2208.6c-149.6,86.56 -250.27,248.34 -250.27,433.62 0,276.49 224.14,500.63 500.63,500.63 276.49,0 500.62,-224.14 500.62,-500.63l584.16 0zm-1000.5 -897.03l0 403.47c-6.72,-1.13 -13.49,-2.17 -20.3,-3.03l-284.1 -492.07c99.84,37.68 201.79,68.37 304.4,91.63zm3529.97 1432.28c0,0 203.97,1056.93 852.95,1149.62 648.97,92.7 1297.94,-389.39 1297.94,-389.39 0,0 815.86,259.59 1353.57,-407.93 537.71,-667.51 407.93,-1242.31 407.93,-1242.31 0,0 908.54,333.74 1483.36,-203.97 574.81,-537.72 407.93,-982.73 407.93,-982.73 0,0 648.97,-296.67 630.42,-1001.27 -18.54,-704.61 -352.3,-1168.14 -352.3,-1168.14 0,0 384.89,-776.34 -95,-1349.96 -82.15,164.2 -251.87,276.95 -447.96,276.95 -91.21,0 -176.71,-24.39 -250.36,-67l-1275.15 2208.66 -1275.15 2208.6c149.6,86.56 250.27,248.34 250.27,433.62 0,276.49 -224.14,500.63 -500.63,500.63 -276.49,0 -500.62,-224.14 -500.62,-500.63l-2550.42 0 -982.16 0c323.65,297.62 806.53,526.26 1545.38,535.25zm5757.63 -6270.13c276.81,-706.37 -214.48,-1423.42 -500.94,-1471.16 74.18,-686.06 -463.54,-1427.77 -1279.4,-1242.34 -142.31,-355.77 -400.25,-531.4 -621.11,-616.63l657.15 1138.22 1275.15 2208.66c73.65,-42.61 159.15,-67 250.36,-67 78.46,0 152.69,18.08 218.79,50.25zm-3127.01 -3979.42c-164.69,-81.3 -362.48,-134.89 -564.79,-147.86l-2312.17 1334.92 1166.5 673.44 1049.75 606.11c86.56,-149.61 248.32,-250.27 433.6,-250.27 276.49,0 500.63,224.13 500.63,500.62 0,276.49 -224.14,500.63 -500.63,500.63l0 1212.2 0 1346.93 2671.74 -1542.49 -1324.91 -2294.89 -1119.72 -1939.34zm-1256.47 -114.41c-72.8,-145.79 -193.84,-297.47 -351.64,-436.61l-1585.73 0 -2653.07 0c-4.14,5.42 -8.43,10.76 -12.78,16.02l2665.85 1539.11 0.03 0 1937.34 -1118.52zm-801.33 -740.3c-476.7,-242.66 -1094.62,-343.5 -1717.77,-85.89 -269.26,-229.66 -1211.39,-266.44 -1700.05,85.89l2281.78 0 1136.04 0zm-4656.14 175.27c-266,-171.11 -914.46,-392.1 -1344.89,-247.26 -482.08,162.22 -737.06,704.6 -737.06,704.6 0,0 -496.02,-106.61 -792.69,148.35 -296.67,254.96 -224.81,431.09 -185.41,644.34 -192.4,-92.71 -778.08,58.32 -686.06,593.32 -407.68,77.71 -702.42,188.71 -825.13,621.16 -122.72,432.44 176.14,880.76 176.14,880.76 0,0 -458.9,190.02 -454.27,797.3 4.62,607.28 417.18,750.96 417.18,750.96 0,0 -157.6,1381.38 834.4,1548.27 -37.08,593.34 945.67,806.59 1297.97,482.11 183.64,419.78 705.5,666.23 1044.24,482.69l-1076.01 -1863.74c-73.65,42.61 -159.15,67 -250.36,67 -276.48,0 -500.62,-224.14 -500.62,-500.63 0,-276.48 224.14,-500.62 500.62,-500.62 91.21,0 176.71,24.39 250.36,67l1275.15 -2208.66 1275.15 -2208.6c-99.82,-57.76 -177.82,-148.98 -218.71,-258.35zm83.02 9117.71c140.24,65.36 300.52,120.44 470.33,156.33l0 -2451.97 0 -0.03 -2665.68 -1539.02c-2.4,6.45 -4.9,12.82 -7.55,19.15l1326.43 2297.51 876.47 1518.03zm787.21 198.44c327.53,17.33 665.35,-49.07 946.31,-255.31 76.83,176.24 164.73,618.94 455.22,1029.21l1248.34 0 2649.86 0 0 -3085.03 -1166.48 673.5 -1049.75 606.06c42.59,73.63 67,159.14 67,250.34 0,276.49 -224.14,500.62 -500.63,500.62 -276.48,0 -500.62,-224.13 -500.62,-500.62 0,-91.2 24.41,-176.71 67,-250.34l-1049.75 -606.06 -1166.5 -673.5 0 2311.13zm2808.31 -3731.9l0 2475.67c6.35,2.12 12.64,4.37 18.88,6.73l1147.6 -662.55 1230.41 -710.39 0 -0.02 94.53 -54.58 0 -62.48 0 -1467.4 0 -1325.27c-6.33,-5.17 -12.51,-10.51 -18.57,-15.98l-2141.68 1236.49c7.19,33.79 11.02,68.83 11.02,104.76 0,221.11 -143.36,408.73 -342.19,475.02zm-316.87 2475.67l0 -2475.67c-198.83,-66.29 -342.19,-253.91 -342.19,-475.02 0,-35.93 3.83,-70.97 11.02,-104.76l-2141.71 -1236.51c-6.07,5.47 -12.23,10.83 -18.56,16l0 1325.27 0 1453.48 0 76.4 98.46 56.85 0 0.02 1226.48 708.12 1147.62 662.55c6.24,-2.36 12.53,-4.61 18.88,-6.73zm-170.15 -3328.36l-2146.71 -1239.39c0.97,-5.05 1.87,-10.1 2.69,-15.18l1147.67 -662.62 1324.93 -764.92 1324.92 764.92 1147.66 662.62c0.82,5.08 1.75,10.15 2.72,15.2l-2146.69 1239.37c-87.92,-76.57 -202.86,-122.95 -328.61,-122.95 -125.74,0 -240.66,46.38 -328.58,122.95zm-2638.17 1724.62l-2671.71 -1542.51 1324.91 -2294.89 1324.96 -2294.8 2671.72 1542.5 -1166.5 673.46 -1049.77 606.11c-86.56,-149.61 -248.32,-250.27 -433.61,-250.27 -276.48,0 -500.62,224.13 -500.62,500.62 0,276.49 224.14,500.63 500.62,500.63l0 1212.2 0 1346.95zm8599.19 -1173.16l-2665.71 1539.02 0 0.03 0 3078.11c6.73,-1.16 13.5,-2.17 20.33,-3.03l1326.5 -2297.47 1326.43 -2297.51c-2.65,-6.33 -5.17,-12.7 -7.55,-19.15zm-2581.4 -5795.27c186.11,0 336.97,150.87 336.97,336.98 0,186.1 -150.86,336.97 -336.97,336.97 -186.1,0 -336.97,-150.87 -336.97,-336.97 0,-186.11 150.87,-336.98 336.97,-336.98zm-6102.07 0c186.1,0 336.97,150.87 336.97,336.98 0,186.1 -150.87,336.97 -336.97,336.97 -186.11,0 -336.97,-150.87 -336.97,-336.97 0,-186.11 150.86,-336.98 336.97,-336.98zm6102.07 10569.02c186.11,0 336.97,150.87 336.97,336.97 0,186.11 -150.86,336.98 -336.97,336.98 -186.1,0 -336.97,-150.87 -336.97,-336.98 0,-186.1 150.87,-336.97 336.97,-336.97zm-6102.07 0c186.1,0 336.97,150.87 336.97,336.97 0,186.11 -150.87,336.98 -336.97,336.98 -186.11,0 -336.97,-150.87 -336.97,-336.98 0,-186.1 150.86,-336.97 336.97,-336.97zm-3051.02 -5284.51c186.11,0 336.98,150.87 336.98,336.97 0,186.11 -150.87,336.98 -336.98,336.98 -186.1,0 -336.97,-150.87 -336.97,-336.98 0,-186.1 150.87,-336.97 336.97,-336.97zm3135.3 -1712.83c186.11,0 336.98,150.87 336.98,336.97 0,186.11 -150.87,336.98 -336.98,336.98 -186.1,0 -336.97,-150.87 -336.97,-336.98 0,-186.1 150.87,-336.97 336.97,-336.97zm2966.75 5138.51c186.11,0 336.98,150.87 336.98,336.98 0,186.1 -150.87,336.97 -336.98,336.97 -186.1,0 -336.97,-150.87 -336.97,-336.97 0,-186.11 150.87,-336.98 336.97,-336.98zm-0.02 -3425.68c186.11,0 336.98,150.87 336.98,336.97 0,186.11 -150.87,336.98 -336.98,336.98 -186.1,0 -336.97,-150.87 -336.97,-336.98 0,-186.1 150.87,-336.97 336.97,-336.97zm2966.75 -1712.83c186.11,0 336.98,150.87 336.98,336.97 0,186.11 -150.87,336.98 -336.98,336.98 -186.1,0 -336.97,-150.87 -336.97,-336.98 0,-186.1 150.87,-336.97 336.97,-336.97z"/>
   <path class="fil1" d="M9036.81 12745.69l-147.25 261.29 -854.78 0 0 -545.64c303.82,22.41 600.36,-24.13 851.85,-150.28 39.61,90.87 80.67,248.78 150.18,434.63zm-318.41 564.98l-828.03 1469.19 -480.11 -332.31 -805.03 1823.1 -480.11 -332.3 -805.03 1823.12 -472.71 -3897.68 480.07 332.29 -155.1 -2487.67 480.06 332.28 212.89 -1411.89c60.22,-22.37 117.49,-51.24 170.3,-85.95l72.51 125.6 1275.15 2208.6c-149.6,86.56 -250.27,248.34 -250.27,433.62 0,276.49 224.14,500.63 500.63,500.63 276.49,0 500.62,-224.14 500.62,-500.63l584.16 0zm-1000.5 -897.03l0 403.47c-6.72,-1.13 -13.49,-2.16 -20.3,-3.03l-284.1 -492.07c99.84,37.68 201.79,68.37 304.4,91.63z"/>
   <path class="fil2" d="M11247.87 13845.92c0,0 203.97,1056.93 852.95,1149.62 648.97,92.7 1297.94,-389.39 1297.94,-389.39 0,0 815.86,259.59 1353.57,-407.93 537.71,-667.51 407.93,-1242.31 407.93,-1242.31 0,0 908.54,333.74 1483.36,-203.97 574.82,-537.72 407.93,-982.73 407.93,-982.73 0,0 648.97,-296.67 630.42,-1001.27 -18.54,-704.61 -352.3,-1168.14 -352.3,-1168.14 0,0 384.89,-776.34 -95,-1349.96 -82.15,164.2 -251.87,276.95 -447.96,276.95 -91.21,0 -176.71,-24.39 -250.36,-67l-1275.15 2208.66 -1275.15 2208.6c149.6,86.56 250.27,248.34 250.27,433.62 0,276.49 -224.14,500.63 -500.63,500.63 -276.49,0 -500.62,-224.14 -500.62,-500.63l-2550.42 0 -982.16 0c323.65,297.62 806.53,526.26 1545.38,535.25zm5757.63 -6270.13c276.81,-706.37 -214.48,-1423.42 -500.94,-1471.16 74.18,-686.06 -463.54,-1427.77 -1279.4,-1242.34 -142.31,-355.77 -400.25,-531.4 -621.11,-616.63l657.15 1138.22 1275.15 2208.66c73.65,-42.61 159.15,-67 250.36,-67 78.46,0 152.69,18.08 218.79,50.25zm-3127.01 -3979.42c-164.69,-81.3 -362.48,-134.89 -564.79,-147.86l-2312.17 1334.92 1166.5 673.44 1049.75 606.11c86.56,-149.61 248.32,-250.27 433.6,-250.27 276.49,0 500.63,224.13 500.63,500.62 0,276.49 -224.14,500.63 -500.63,500.63l0 1212.2 0 1346.93 2671.74 -1542.49 -1324.91 -2294.89 -1119.72 -1939.34zm-1256.47 -114.41c-72.8,-145.79 -193.84,-297.47 -351.64,-436.61l-1585.73 0 -2653.07 0c-4.14,5.42 -8.43,10.76 -12.78,16.02l2665.85 1539.11 0.03 0 1937.34 -1118.52zm-801.33 -740.3c-476.7,-242.66 -1094.62,-343.5 -1717.77,-85.89 -269.26,-229.67 -1211.39,-266.44 -1700.05,85.89l2281.78 0 1136.04 0zm-4656.14 175.27c-266,-171.11 -914.46,-392.1 -1344.89,-247.26 -482.08,162.22 -737.06,704.6 -737.06,704.6 0,0 -496.02,-106.61 -792.69,148.35 -296.67,254.95 -224.81,431.09 -185.41,644.34 -192.4,-92.71 -778.08,58.32 -686.06,593.32 -407.68,77.71 -702.42,188.71 -825.13,621.16 -122.72,432.44 176.14,880.76 176.14,880.76 0,0 -458.9,190.02 -454.27,797.3 4.62,607.28 417.18,750.96 417.18,750.96 0,0 -157.6,1381.38 834.4,1548.27 -37.08,593.34 945.67,806.59 1297.97,482.11 183.64,419.78 705.5,666.23 1044.24,482.69l-1076.01 -1863.74c-73.65,42.61 -159.15,67 -250.36,67 -276.48,0 -500.62,-224.14 -500.62,-500.63 0,-276.48 224.14,-500.62 500.62,-500.62 91.21,0 176.71,24.39 250.36,67l1275.15 -2208.66 1275.15 -2208.6c-99.82,-57.76 -177.82,-148.98 -218.71,-258.35zm83.02 9117.71c140.24,65.36 300.52,120.44 470.33,156.33l0 -2451.97 0 -0.03 -2665.68 -1539.02c-2.4,6.45 -4.9,12.82 -7.55,19.15l1326.43 2297.51 876.47 1518.03zm787.21 198.44c327.53,17.33 665.35,-49.07 946.31,-255.31 76.83,176.24 164.73,618.95 455.22,1029.21l1248.34 0 2649.86 0 0 -3085.03 -1166.48 673.5 -1049.75 606.06c42.59,73.63 67,159.14 67,250.34 0,276.49 -224.14,500.62 -500.63,500.62 -276.48,0 -500.62,-224.13 -500.62,-500.62 0,-91.2 24.41,-176.71 67,-250.34l-1049.75 -606.06 -1166.5 -673.5 0 2311.13zm2808.31 -3731.9l0 2475.67c6.35,2.12 12.64,4.37 18.88,6.73l1147.6 -662.55 1230.41 -710.39 0 -0.02 94.53 -54.58 0 -62.48 0 -1467.4 0 -1325.27c-6.33,-5.17 -12.51,-10.51 -18.57,-15.98l-2141.68 1236.49c7.19,33.79 11.02,68.83 11.02,104.76 0,221.11 -143.36,408.73 -342.19,475.02zm-316.87 2475.67l0 -2475.67c-198.83,-66.29 -342.19,-253.91 -342.19,-475.02 0,-35.93 3.83,-70.97 11.02,-104.76l-2141.71 -1236.51c-6.07,5.47 -12.23,10.83 -18.56,16l0 1325.27 0 1453.48 0 76.4 98.46 56.85 0 0.02 1226.48 708.12 1147.62 662.55c6.24,-2.36 12.53,-4.61 18.88,-6.73zm-170.15 -3328.36l-2146.71 -1239.39c0.97,-5.05 1.87,-10.1 2.69,-15.18l1147.67 -662.62 1324.93 -764.92 1324.92 764.92 1147.66 662.62c0.82,5.08 1.75,10.15 2.72,15.2l-2146.69 1239.37c-87.92,-76.57 -202.86,-122.95 -328.61,-122.95 -125.74,0 -240.66,46.38 -328.58,122.95zm-2638.17 1724.62l-2671.71 -1542.51 1324.91 -2294.89 1324.96 -2294.8 2671.72 1542.5 -1166.5 673.46 -1049.77 606.11c-86.56,-149.61 -248.32,-250.27 -433.61,-250.27 -276.48,0 -500.62,224.13 -500.62,500.62 0,276.49 224.14,500.63 500.62,500.63l0 1212.2 0 1346.95zm8599.19 -1173.16l-2665.71 1539.02 0 0.03 0 3078.11c6.73,-1.16 13.5,-2.16 20.33,-3.03l1326.5 -2297.47 1326.43 -2297.51c-2.65,-6.33 -5.17,-12.7 -7.55,-19.15z"/>
   <path class="fil3" d="M4832.96 7592.54l1275.15 -2208.66 1275.15 -2208.6c-149.6,-86.56 -250.27,-248.34 -250.27,-433.62 0,-276.49 224.14,-500.63 500.63,-500.63 276.49,0 500.62,224.14 500.62,500.63l2550.41 0 2550.42 0c0,-276.49 224.13,-500.63 500.62,-500.63 276.49,0 500.63,224.14 500.63,500.63 0,185.28 -100.67,347.06 -250.27,433.62l1275.15 2208.6 1275.15 2208.66c73.65,-42.61 159.15,-67 250.36,-67 276.48,0 500.62,224.14 500.62,500.62 0,276.49 -224.14,500.63 -500.62,500.63 -91.21,0 -176.71,-24.39 -250.36,-67l-1275.15 2208.66 -1275.15 2208.6c149.6,86.56 250.27,248.34 250.27,433.62 0,276.49 -224.14,500.63 -500.63,500.63 -276.49,0 -500.62,-224.14 -500.62,-500.63l-2550.42 0 -2550.41 0c0,276.49 -224.13,500.63 -500.62,500.63 -276.49,0 -500.63,-224.14 -500.63,-500.63 0,-185.28 100.67,-347.06 250.27,-433.62l-1275.15 -2208.6 -1275.15 -2208.66c-73.65,42.61 -159.15,67 -250.36,67 -276.48,0 -500.62,-224.14 -500.62,-500.63 0,-276.48 224.14,-500.62 500.62,-500.62 91.21,0 176.71,24.39 250.36,67zm6010.13 908.64l0 2475.67c6.35,2.12 12.64,4.37 18.88,6.73l1147.6 -662.55 1230.41 -710.39 0 -0.02 94.53 -54.58 0 -62.48 0 -1467.4 0 -1325.27c-6.33,-5.17 -12.51,-10.51 -18.57,-15.98l-2141.68 1236.49c7.19,33.79 11.02,68.83 11.02,104.76 0,221.11 -143.36,408.73 -342.19,475.02zm-316.87 2475.67l0 -2475.67c-198.83,-66.29 -342.19,-253.91 -342.19,-475.02 0,-35.93 3.83,-70.97 11.02,-104.76l-2141.71 -1236.51c-6.07,5.47 -12.23,10.83 -18.56,16l0 1325.27 0 1453.48 0 76.4 98.46 56.85 0 0.02 1226.48 708.12 1147.62 662.55c6.24,-2.36 12.53,-4.61 18.88,-6.73zm-170.15 -3328.36l-2146.71 -1239.39c0.97,-5.05 1.87,-10.1 2.69,-15.18l1147.67 -662.62 1324.93 -764.92 1324.92 764.92 1147.66 662.62c0.82,5.08 1.75,10.15 2.72,15.2l-2146.69 1239.37c-87.92,-76.57 -202.86,-122.95 -328.61,-122.95 -125.74,0 -240.66,46.38 -328.58,122.95zm-5303.85 551.46l2665.68 1539.02 0 0.03 0 3078.11c-6.72,-1.13 -13.49,-2.17 -20.3,-3.03l-1326.5 -2297.47 -1326.43 -2297.51c2.65,-6.33 5.15,-12.7 7.55,-19.15zm2665.68 1173.16l-2671.71 -1542.51 1324.91 -2294.89 1324.96 -2294.8 2671.72 1542.5 -1166.5 673.46 -1049.77 606.11c-86.56,-149.61 -248.32,-250.27 -433.61,-250.27 -276.48,0 -500.62,224.13 -500.62,500.62 0,276.49 224.14,500.63 500.62,500.63l0 1212.2 0 1346.95zm2966.75 -4772.63l-2665.85 -1539.11c4.35,-5.26 8.64,-10.6 12.78,-16.02l2653.07 0 2653.08 0c4.14,5.42 8.41,10.78 12.78,16.02l-2665.83 1539.11 -0.03 0zm5632.44 3599.47l-2665.71 1539.02 0 0.03 0 3078.11c6.73,-1.16 13.5,-2.17 20.33,-3.03l1326.5 -2297.47 1326.43 -2297.51c-2.65,-6.33 -5.17,-12.7 -7.55,-19.15zm-2665.71 1173.14l2671.74 -1542.49 -1324.91 -2294.89 -1324.96 -2294.8 -2671.72 1542.52 1166.5 673.44 1049.75 606.11c86.56,-149.61 248.32,-250.27 433.6,-250.27 276.49,0 500.63,224.13 500.63,500.62 0,276.49 -224.14,500.63 -500.63,500.63l0 1212.2 0 1346.93zm-5616.6 548.86l0 3085.03 2649.87 0 2649.86 0 0 -3085.03 -1166.48 673.5 -1049.75 606.06c42.59,73.63 67,159.14 67,250.34 0,276.49 -224.14,500.62 -500.63,500.62 -276.48,0 -500.62,-224.13 -500.62,-500.62 0,-91.2 24.41,-176.71 67,-250.34l-1049.75 -606.06 -1166.5 -673.5z"/>
   <path class="fil1" d="M16786.71 7689.19c186.1,0 336.97,150.87 336.97,336.97 0,186.11 -150.87,336.98 -336.97,336.98 -186.11,0 -336.98,-150.87 -336.98,-336.98 0,-186.1 150.87,-336.97 336.98,-336.97zm-3051.02 -5284.51c186.11,0 336.97,150.87 336.97,336.98 0,186.1 -150.86,336.97 -336.97,336.97 -186.1,0 -336.97,-150.87 -336.97,-336.97 0,-186.11 150.87,-336.98 336.97,-336.98zm-6102.07 0c186.1,0 336.97,150.87 336.97,336.98 0,186.1 -150.87,336.97 -336.97,336.97 -186.11,0 -336.98,-150.87 -336.98,-336.97 0,-186.11 150.87,-336.98 336.98,-336.98zm6102.07 10569.02c186.11,0 336.97,150.87 336.97,336.97 0,186.11 -150.86,336.98 -336.97,336.98 -186.1,0 -336.97,-150.87 -336.97,-336.98 0,-186.1 150.87,-336.97 336.97,-336.97zm-6102.07 0c186.1,0 336.97,150.87 336.97,336.97 0,186.11 -150.87,336.98 -336.97,336.98 -186.11,0 -336.98,-150.87 -336.98,-336.98 0,-186.1 150.87,-336.97 336.98,-336.97zm-3051.02 -5284.51c186.11,0 336.98,150.87 336.98,336.97 0,186.11 -150.87,336.98 -336.98,336.98 -186.1,0 -336.97,-150.87 -336.97,-336.98 0,-186.1 150.87,-336.97 336.97,-336.97zm3135.3 -1712.83c186.11,0 336.98,150.87 336.98,336.97 0,186.11 -150.87,336.98 -336.98,336.98 -186.1,0 -336.97,-150.87 -336.97,-336.98 0,-186.1 150.87,-336.97 336.97,-336.97zm2966.75 5138.51c186.11,0 336.98,150.87 336.98,336.98 0,186.1 -150.87,336.97 -336.98,336.97 -186.1,0 -336.97,-150.87 -336.97,-336.97 0,-186.11 150.87,-336.98 336.97,-336.98zm-0.02 -3425.68c186.11,0 336.98,150.87 336.98,336.97 0,186.11 -150.87,336.98 -336.98,336.98 -186.1,0 -336.97,-150.87 -336.97,-336.98 0,-186.1 150.87,-336.97 336.97,-336.97zm2966.75 -1712.83c186.11,0 336.98,150.87 336.98,336.97 0,186.11 -150.87,336.98 -336.98,336.98 -186.1,0 -336.97,-150.87 -336.97,-336.98 0,-186.1 150.87,-336.97 336.97,-336.97z"/>
  </g>
 </g>
</svg>
