<?xml version="1.0" encoding="UTF-8"?>
<!DOCTYPE svg PUBLIC "-//W3C//DTD SVG 1.1//EN" "http://www.w3.org/Graphics/SVG/1.1/DTD/svg11.dtd">
<!-- Creator: CorelDRAW 2020 (64 Bit) -->
<svg xmlns="http://www.w3.org/2000/svg" xml:space="preserve" width="200mm" height="200mm" version="1.1" style="shape-rendering:geometricPrecision; text-rendering:geometricPrecision; image-rendering:optimizeQuality; fill-rule:evenodd; clip-rule:evenodd"
viewBox="0 0 20000 20000"
 xmlns:xlink="http://www.w3.org/1999/xlink"
 xmlns:xodm="http://www.corel.com/coreldraw/odm/2003">
 <defs>
  <style type="text/css">
   <![CDATA[
    .fil5 {fill:#1A1A1A}
    .fil2 {fill:#1A1A1A}
    .fil16 {fill:#4D4D4D}
    .fil7 {fill:#610000}
    .fil15 {fill:#666666}
    .fil14 {fill:#666666}
    .fil6 {fill:#7F0001}
    .fil18 {fill:gray}
    .fil13 {fill:gray}
    .fil10 {fill:#AB734D}
    .fil4 {fill:#BF9900}
    .fil12 {fill:#C9771A}
    .fil1 {fill:#CCCCCC}
    .fil9 {fill:#D58E5F}
    .fil17 {fill:red}
    .fil11 {fill:#FF9922}
    .fil3 {fill:#FFCB02}
    .fil8 {fill:white}
    .fil0 {fill:white}
   ]]>
  </style>
 </defs>
 <g id="Camada_x0020_1">
  <metadata id="CorelCorpID_0Corel-Layer"/>
  <g id="_2895494289744">
   <g>
    <rect class="fil0" x="8192.75" y="7872.78" width="3626.3" height="4256.95" rx="487.55" ry="487.55"/>
    <path class="fil1" d="M10005.92 12129.73l1325.59 0c268.15,0 487.55,-219.4 487.55,-487.55l0 -3281.85c0,-268.15 -219.4,-487.55 -487.55,-487.55l-1325.59 0 0 4256.95z"/>
    <rect class="fil2" x="8565.42" y="8791.26" width="2880.97" height="85.99" rx="325.04" ry="325.04"/>
    <rect class="fil2" x="8565.42" y="9936.13" width="2880.97" height="85.99" rx="325.04" ry="325.04"/>
    <rect class="fil2" x="8565.42" y="11054.12" width="801.15" height="85.99" rx="90.39" ry="325.04"/>
    <path class="fil3" d="M9589.81 10165.57l2035.36 -2035.36c126.42,-126.42 333.26,-126.41 459.67,0l270.06 270.06c126.42,126.42 126.42,333.24 -0.01,459.67l-2035.35 2035.35 -729.73 -729.72z"/>
    <path class="fil4" d="M12449.68 8631.23c-0.29,82.94 -31.87,165.8 -94.78,228.71l-2035.36 2035.36 -364.1 -364.11 2156.87 -2156.88c26.24,-26.25 55.61,-47.59 86.93,-64.02l163.78 163.79c44.7,44.69 73.58,99.46 86.66,157.15z"/>
    <rect class="fil5" transform="matrix(2.48927 -2.48927 0.337673 0.337673 9628.68 10421.1)" width="806.98" height="546.8"/>
    <rect class="fil2" transform="matrix(2.34067 -2.34067 0.148465 0.148465 10065.5 10702.2)" width="806.98" height="546.8"/>
    <path class="fil6" d="M11415.77 8339.61l209.39 -209.4 0.73 -0.72c126.47,-125.67 332.79,-125.45 458.95,0.72l270.06 270.05c126.4,126.41 126.39,333.28 0,459.68l-209.39 209.39 -729.74 -729.72z"/>
    <path class="fil7" d="M12220.63 8265.99l134.27 134.27c126.4,126.41 126.39,333.28 0,459.68l-209.39 209.39 -364.12 -364.1 439.24 -439.24z"/>
    <path class="fil8" d="M11599.65 8155.72l25.51 -25.51 0.73 -0.72c18.98,-18.87 39.77,-34.87 61.82,-48.07l715.98 715.97c-13.36,22.33 -29.61,43.38 -48.79,62.55l-25.52 25.52 -729.73 -729.74z"/>
    <polygon class="fil9" points="9363.16,11121.95 9589.81,10165.56 10319.54,10895.3 "/>
    <polygon class="fil10" points="9955.44,10531.19 10319.54,10895.3 9365.16,11121.47 "/>
    <polygon class="fil2" points="9363.16,11121.95 9417.57,10892.31 9592.8,11067.53 "/>
   </g>
   <g>
    <circle class="fil11" cx="3377.59" cy="9241.6" r="1368.82"/>
    <path class="fil12" d="M3377.59 7872.78c755.98,0 1368.82,612.84 1368.82,1368.82 0,145.32 -22.72,285.32 -64.68,416.71l-1304.14 0 0 -1785.53z"/>
    <rect class="fil0" transform="matrix(1.46537 0.333017 -0 2.05197 1458.39 8843.15)" width="1309.69" height="1309.69"/>
    <rect class="fil1" transform="matrix(-1.46537 0.333017 -0 2.05197 5296.78 8843.15)" width="1309.69" height="1309.69"/>
    <path class="fil6" d="M1408.31 11726.21l1969.28 403.52 0 -2687.44 -1969.28 -403.52c-87.56,-17.95 -159.2,42 -159.2,133.25l0 2355.68c0,91.25 71.64,180.56 159.2,198.51z"/>
    <path class="fil7" d="M5346.86 11726.21l-1969.27 403.52 0 -2687.44 1969.27 -403.52c87.57,-17.95 159.2,42 159.2,133.25l0 2355.68c0,91.25 -71.63,180.56 -159.2,198.51z"/>
    <rect class="fil4" transform="matrix(-1.30557 0.267526 -0 1.64843 5296.78 9313.29)" width="1309.69" height="1309.69" rx="121.95" ry="121.95"/>
    <rect class="fil3" transform="matrix(1.30557 0.267526 -0 1.64843 1458.41 9313.29)" width="1309.69" height="1309.69" rx="121.95" ry="121.95"/>
   </g>
   <g>
    <circle class="fil13" cx="17264.9" cy="11739.2" r="390.53"/>
    <path class="fil14" d="M17264.9 12129.73l0 -781.06c215.67,0 390.53,174.86 390.53,390.53 0,215.68 -174.86,390.53 -390.53,390.53z"/>
    <path class="fil15" d="M16583.97 10588.95l1361.84 0 0 897.34c0,196.24 -160.58,356.83 -356.82,356.83l-648.2 0c-196.26,0 -356.82,-160.59 -356.82,-356.83l0 -897.34z"/>
    <path class="fil16" d="M17264.9 10588.95l680.91 0 0 897.34c0,196.26 -160.56,356.83 -356.82,356.83l-324.09 0 0 -1254.17z"/>
    <path class="fil3" d="M16583.97 9869.26l1361.84 0 0 963.6c0,210.74 -172.43,383.18 -383.19,383.18l-595.46 0c-210.76,0 -383.19,-172.44 -383.19,-383.18l0 -963.6z"/>
    <path class="fil4" d="M17264.9 9869.26l680.91 0 0 963.6c0,210.77 -172.43,383.18 -383.18,383.18l-297.73 0 0 -1346.78z"/>
    <circle class="fil3" transform="matrix(1.13269 4.47576E-05 -4.47576E-05 1.13269 17264.9 9356.26)" r="1309.69"/>
    <path class="fil4" d="M17264.9 10839.73c819.26,0 1483.44,-664.12 1483.47,-1483.41 0.04,-819.3 -664.11,-1483.51 -1483.41,-1483.54l-0.06 0 0 2966.95z"/>
    <path class="fil17" d="M16873.91 9436.33l0 -0.02c19.52,-19.5 51.42,-19.5 70.92,0l319.24 319.24 319.98 -320c19.52,-19.52 51.42,-19.52 70.94,0l0.01 0.01 0.2 0.18c10.11,9.2 16.48,22.45 16.48,37.09l0 1741.51c0,27.59 -22.56,50.15 -50.15,50.15l-0.04 0c-27.59,0 -50.15,-22.56 -50.15,-50.15l0 -1624.17 -270.88 270.87 -0.9 0.92 -0.03 0.02 -0.93 0.89 -0.94 0.88 -0.96 0.85 -0.97 0.81 -1 0.78 -1 0.76 -1.01 0.73 -1.04 0.7 -1.06 0.67 -1.05 0.65 -1.08 0.6 0 0.02 -1.08 0.56 0 0.02 -1.09 0.55 -1.13 0.52 0 0.02 -1.1 0.49 0 0.01 -1.14 0.46 0 0.01 -1.14 0.43 0 0.01 -1.13 0.41 -1.16 0.37 0 0.02 -1.17 0.34 0 0.02 -1.15 0.32 -1.19 0.3 0 0.01 -1.17 0.26 -1.18 0.25 -1.19 0.21 0 0.01 -1.2 0.17 0 0.01 -1.19 0.15 0 0.01 -1.2 0.12 0 0.01 -1.2 0.09 0 0.01 -1.21 0.05 0 0.02 -1.2 0.03 0 0.02 -1.2 0 -1.22 0 0 -0.02 -1.2 -0.03 0 -0.02 -1.21 -0.05 0 -0.01 -1.2 -0.09 0 -0.01 -1.19 -0.12 0 -0.01 -1.2 -0.15 0 -0.01 -1.18 -0.17 0 -0.01 -1.21 -0.21 -1.17 -0.25 -1.18 -0.26 0 -0.01 -1.17 -0.3 -1.17 -0.32 0 -0.02 -1.16 -0.34 0 -0.02 -1.15 -0.37 -1.16 -0.41 0 -0.01 -1.13 -0.43 0 -0.01 -1.12 -0.46 0 -0.01 -1.13 -0.49 0 -0.02 -1.1 -0.52 -1.11 -0.55 0 -0.02 -1.07 -0.56 0 -0.02 -1.07 -0.6 -1.07 -0.65 -1.04 -0.67 -1.04 -0.7 -1.03 -0.73 -1.01 -0.76 -0.97 -0.78 -0.98 -0.81 -0.95 -0.85 -0.95 -0.88 -0.92 -0.89 -270.21 -270.19 0 1622.55c0,27.59 -22.55,50.15 -50.15,50.15l-0.03 0c-27.6,0 -50.15,-22.56 -50.15,-50.15l0 -1741.51c0,-14.35 6.09,-27.34 15.84,-36.5z"/>
    <path class="fil7" d="M17264.9 9876.61l0 -121.89 319.15 -319.17c19.52,-19.52 51.42,-19.52 70.94,0l0.01 0.01 0.2 0.18c10.11,9.2 16.48,22.45 16.48,37.09l0 1741.51c0,27.59 -22.56,50.15 -50.15,50.15l-0.04 0c-27.59,0 -50.15,-22.56 -50.15,-50.15l0 -1624.17 -270.88 270.87 -0.9 0.92 -0.03 0.02 -0.93 0.89 -0.94 0.88 -0.96 0.85 -0.97 0.81 -1 0.78 -1 0.76 -1.01 0.73 -1.04 0.7 -1.06 0.67 -1.05 0.65 -1.08 0.6 0 0.02 -1.08 0.56 0 0.02 -1.09 0.55 -1.13 0.52 0 0.02 -1.1 0.49 0 0.01 -1.14 0.46 0 0.01 -1.14 0.43 0 0.01 -1.13 0.41 -1.16 0.37 0 0.02 -1.17 0.34 0 0.02 -1.15 0.32 -1.19 0.3 0 0.01 -1.17 0.26 -1.18 0.25 -1.19 0.21 0 0.01 -1.2 0.17 0 0.01 -1.19 0.15 0 0.01 -1.2 0.12 0 0.01 -1.2 0.09 0 0.01 -1.21 0.05 0 0.02 -1.2 0.03 0 0.02 -0.37 0z"/>
    <path class="fil18" d="M17945.81 10766.6l0 359.85c0,196.25 -160.56,356.82 -356.82,356.82l-648.2 0c-196.26,0 -356.83,-160.57 -356.83,-356.82l0 -359.85c0,196.26 160.57,356.82 356.83,356.82l648.2 0c196.26,0 356.82,-160.56 356.82,-356.82z"/>
    <path class="fil14" d="M17264.9 11483.27l0 -359.85 324.09 0c196.26,0 356.82,-160.56 356.82,-356.82l0 359.85c0,196.25 -160.56,356.82 -356.82,356.82l-324.09 0z"/>
   </g>
  </g>
 </g>
</svg>
